<svg width="28" height="29" viewBox="0 0 28 29" fill="none" xmlns="http://www.w3.org/2000/svg">
<path d="M9.06736 3.84355L10.3227 3.44222C11.4999 3.06655 12.7575 3.67438 13.2615 4.86205L14.2649 7.22805C14.7012 8.25822 14.4585 9.47038 13.6652 10.224L11.4544 12.3217C11.5909 13.577 12.0132 14.8125 12.7202 16.0282C13.3916 17.2044 14.2921 18.2339 15.3685 19.0557L18.0239 18.169C19.0295 17.8342 20.1262 18.2204 20.7422 19.1269L22.1807 21.2385C22.8982 22.2932 22.7687 23.7469 21.8785 24.6405L20.9254 25.5984C19.9757 26.5515 18.6189 26.898 17.3647 26.506C14.4014 25.582 11.6795 22.8392 9.19453 18.2775C6.70603 13.7089 5.82753 9.83088 6.5602 6.64822C6.8682 5.30888 7.82136 4.24138 9.06736 3.84355V3.84355Z" fill="white"/>
</svg>
