<svg width="72" height="72" viewBox="0 0 72 72" fill="none" xmlns="http://www.w3.org/2000/svg">
<g clip-path="url(#clip0_2_225)">
<path fill-rule="evenodd" clip-rule="evenodd" d="M14.2604 16.3471C18.3915 10.7636 24.3225 7.58055 31.0472 5.83176C39.2865 3.68912 48.1052 1.15253 55.3268 5.6676C64.2926 11.2733 72.9236 20.6475 71.4875 31.1159C70.0866 41.329 57.4485 44.0957 49.2061 50.2869C39.8629 57.305 32.7155 71.8054 21.4398 68.709C10.1227 65.6011 8.36993 50.2571 6.77642 38.6351C5.65605 30.4639 9.35633 22.9751 14.2604 16.3471Z" fill="#F6F7FB"/>
<g clip-path="url(#clip1_2_225)">
<path d="M52.0563 23.4163C52.9649 17.1447 49.0732 11.1749 42.9689 9.47503C36.8642 7.77521 30.4471 10.8748 27.9837 16.7128C25.1087 14.7463 21.2987 14.8364 18.5203 16.9369C15.7414 19.0374 14.6154 22.6782 15.7234 25.9803C10.942 27.9306 8.20929 32.9909 9.20133 38.0583C10.1929 43.1257 14.6321 46.7828 19.7957 46.7859H20.6955C21.1924 46.7859 21.5952 46.383 21.5952 45.8861C21.5952 45.3892 21.1924 44.9864 20.6955 44.9864H19.7957C15.3377 44.9846 11.5527 41.7203 10.8959 37.311C10.2386 32.9018 12.9076 28.6757 17.171 27.3744C17.4223 27.297 17.6271 27.1138 17.7321 26.8731C17.8371 26.6319 17.8314 26.3573 17.7163 26.1209C17.3046 25.2703 17.0924 24.3367 17.0964 23.3917C17.0981 20.8642 18.6099 18.5822 20.9362 17.5946C23.263 16.6069 25.9544 17.1042 27.7742 18.8585C28.0004 19.076 28.3238 19.1599 28.6269 19.0795C28.9305 18.9996 29.17 18.7672 29.2596 18.4667C30.9489 12.8786 36.7737 9.6455 42.4092 11.1669C48.0451 12.6888 51.4509 18.4139 50.0986 24.0929C50.0318 24.3732 50.1034 24.6684 50.291 24.8868C50.4786 25.1056 50.7598 25.2211 51.0467 25.1979C51.128 25.1913 51.2027 25.1913 51.2879 25.1913C56.7542 25.1913 61.1854 29.6225 61.1854 35.0888C61.1854 40.5551 56.7542 44.9864 51.2879 44.9864C50.791 44.9864 50.3881 45.3892 50.3881 45.8861C50.3881 46.383 50.791 46.7859 51.2879 46.7859C57.6044 46.7943 62.7864 41.7862 62.9938 35.4732C63.2012 29.1603 58.3596 23.8231 52.0563 23.4163V23.4163Z" fill="black"/>
<path d="M48.5569 52.3405C48.5727 52.2895 48.5832 52.2372 48.5885 52.1845V47.6856C48.5885 44.2073 45.7688 41.3872 42.2901 41.3872C38.8118 41.3872 35.9916 44.2073 35.9916 47.6856V56.6834C35.9916 59.1683 33.9772 61.1823 31.4928 61.1823C29.0083 61.1823 26.9939 59.1683 26.9939 56.6834V46.6202C28.0685 46.2406 28.7886 45.2266 28.7934 44.0865V42.7083C29.9304 42.308 30.9655 41.6631 31.8258 40.8187C33.345 39.2994 34.1965 37.2376 34.1921 35.0887V32.3894C34.1921 31.3956 33.3863 30.5898 32.3925 30.5898H30.593C30.0961 30.5898 29.6932 30.9927 29.6932 31.4896C29.6932 31.9865 30.0961 32.3894 30.593 32.3894H32.3925V35.0887C32.3952 36.7587 31.7335 38.3605 30.5534 39.5419C28.9762 41.1218 26.6806 41.7488 24.5195 41.1903C21.7376 40.472 19.7943 37.962 19.7956 35.0887V32.3894H21.5952C22.0921 32.3894 22.495 31.9865 22.495 31.4896C22.495 30.9927 22.0921 30.5898 21.5952 30.5898H19.7956C18.8019 30.5898 17.9961 31.3956 17.9961 32.3894V35.0887C17.9952 38.5218 20.1585 41.5818 23.3948 42.7263V44.0865C23.3996 45.2266 24.1197 46.2406 25.1943 46.6202V56.6834C25.1943 60.1621 28.0145 62.9818 31.4928 62.9818C34.9715 62.9818 37.7912 60.1621 37.7912 56.6834V47.6856C37.7912 45.2011 39.8056 43.1867 42.2901 43.1867C44.7746 43.1867 46.789 45.2011 46.789 47.6856V52.1845C46.7942 52.2372 46.8048 52.2895 46.8206 52.3405C45.5698 52.7653 44.8102 54.0328 45.0254 55.3364C45.2407 56.6395 46.3676 57.5955 47.6887 57.5955C49.0099 57.5955 50.1368 56.6395 50.3521 55.3364C50.5673 54.0328 49.8077 52.7653 48.5569 52.3405V52.3405ZM26.9939 44.0865C26.9939 44.5834 26.591 44.9863 26.0941 44.9863C25.5972 44.9863 25.1943 44.5834 25.1943 44.0865V43.1366C25.7923 43.2039 26.3959 43.2039 26.9939 43.1366V44.0865ZM47.6887 55.7836C47.1918 55.7836 46.789 55.3807 46.789 54.8838C46.789 54.3869 47.1918 53.9841 47.6887 53.9841C48.1856 53.9841 48.5885 54.3869 48.5885 54.8838C48.5885 55.3807 48.1856 55.7836 47.6887 55.7836Z" fill="black"/>
</g>
</g>
<defs>
<clipPath id="clip0_2_225">
<rect width="72" height="72" fill="white"/>
</clipPath>
<clipPath id="clip1_2_225">
<rect width="54" height="54" fill="white" transform="translate(9 9)"/>
</clipPath>
</defs>
</svg>
