<svg width="61" height="61" viewBox="0 0 61 61" fill="none" xmlns="http://www.w3.org/2000/svg">
<path d="M6.96758 48.4361L6.91758 48.4861C6.24258 47.0111 5.81758 45.3361 5.64258 43.4861C5.81758 45.3111 6.29258 46.9611 6.96758 48.4361Z" fill="#85A8F8"/>
<path d="M23.0176 26.8611C26.3037 26.8611 28.9676 24.1972 28.9676 20.9111C28.9676 17.625 26.3037 14.9611 23.0176 14.9611C19.7315 14.9611 17.0676 17.625 17.0676 20.9111C17.0676 24.1972 19.7315 26.8611 23.0176 26.8611Z" fill="white"/>
<path d="M40.9926 5.91113H20.0426C10.9426 5.91113 5.51758 11.3361 5.51758 20.4361V41.3861C5.51758 44.1111 5.99258 46.4861 6.91758 48.4861C9.06758 53.2361 13.6676 55.9111 20.0426 55.9111H40.9926C50.0926 55.9111 55.5176 50.4861 55.5176 41.3861V35.6611V20.4361C55.5176 11.3361 50.0926 5.91113 40.9926 5.91113ZM51.4426 32.1611C49.4926 30.4861 46.3426 30.4861 44.3926 32.1611L33.9926 41.0861C32.0426 42.7611 28.8926 42.7611 26.9426 41.0861L26.0926 40.3861C24.3176 38.8361 21.4926 38.6861 19.4926 40.0361L10.1426 46.3111C9.59258 44.9111 9.26758 43.2861 9.26758 41.3861V20.4361C9.26758 13.3861 12.9926 9.66113 20.0426 9.66113H40.9926C48.0426 9.66113 51.7676 13.3861 51.7676 20.4361V32.4361L51.4426 32.1611Z" fill="white"/>
</svg>
