<svg width="61" height="60" viewBox="0 0 61 60" fill="none" xmlns="http://www.w3.org/2000/svg">
<path d="M6.48564 47.525L6.43564 47.575C5.76064 46.1 5.33564 44.425 5.16064 42.575C5.33564 44.4 5.81064 46.05 6.48564 47.525Z" fill="#85A8F8"/>
<path d="M22.5357 25.95C25.8218 25.95 28.4857 23.2861 28.4857 20C28.4857 16.7139 25.8218 14.05 22.5357 14.05C19.2496 14.05 16.5857 16.7139 16.5857 20C16.5857 23.2861 19.2496 25.95 22.5357 25.95Z" fill="white"/>
<path d="M40.5106 5H19.5606C10.4606 5 5.03564 10.425 5.03564 19.525V40.475C5.03564 43.2 5.51064 45.575 6.43564 47.575C8.58564 52.325 13.1856 55 19.5606 55H40.5106C49.6106 55 55.0356 49.575 55.0356 40.475V34.75V19.525C55.0356 10.425 49.6106 5 40.5106 5ZM50.9606 31.25C49.0106 29.575 45.8606 29.575 43.9106 31.25L33.5106 40.175C31.5606 41.85 28.4106 41.85 26.4606 40.175L25.6106 39.475C23.8356 37.925 21.0106 37.775 19.0106 39.125L9.66064 45.4C9.11064 44 8.78564 42.375 8.78564 40.475V19.525C8.78564 12.475 12.5106 8.75 19.5606 8.75H40.5106C47.5606 8.75 51.2856 12.475 51.2856 19.525V31.525L50.9606 31.25Z" fill="white"/>
</svg>
