<svg width="61" height="61" viewBox="0 0 61 61" fill="none" xmlns="http://www.w3.org/2000/svg">
<path d="M7.00371 48.4361L6.95371 48.4861C6.27871 47.0111 5.85371 45.3361 5.67871 43.4861C5.85371 45.3111 6.32871 46.9611 7.00371 48.4361Z" fill="#85A8F8"/>
<path d="M23.0538 26.8611C26.3399 26.8611 29.0038 24.1972 29.0038 20.9111C29.0038 17.625 26.3399 14.9611 23.0538 14.9611C19.7677 14.9611 17.1038 17.625 17.1038 20.9111C17.1038 24.1972 19.7677 26.8611 23.0538 26.8611Z" fill="white"/>
<path d="M41.0287 5.91113H20.0787C10.9787 5.91113 5.55371 11.3361 5.55371 20.4361V41.3861C5.55371 44.1111 6.02871 46.4861 6.95371 48.4861C9.10371 53.2361 13.7037 55.9111 20.0787 55.9111H41.0287C50.1287 55.9111 55.5537 50.4861 55.5537 41.3861V35.6611V20.4361C55.5537 11.3361 50.1287 5.91113 41.0287 5.91113ZM51.4787 32.1611C49.5287 30.4861 46.3787 30.4861 44.4287 32.1611L34.0287 41.0861C32.0787 42.7611 28.9287 42.7611 26.9787 41.0861L26.1287 40.3861C24.3537 38.8361 21.5287 38.6861 19.5287 40.0361L10.1787 46.3111C9.62871 44.9111 9.30371 43.2861 9.30371 41.3861V20.4361C9.30371 13.3861 13.0287 9.66113 20.0787 9.66113H41.0287C48.0787 9.66113 51.8037 13.3861 51.8037 20.4361V32.4361L51.4787 32.1611Z" fill="white"/>
</svg>
