<svg width="240" height="241" viewBox="0 0 240 241" fill="none" xmlns="http://www.w3.org/2000/svg">
<path d="M25.8 191.098L25.6 191.298C22.9 185.398 21.2 178.698 20.5 171.298C21.2 178.598 23.1 185.198 25.8 191.098Z" fill="white"/>
<path d="M90 104.798C103.144 104.798 113.8 94.1424 113.8 80.9981C113.8 67.8537 103.144 57.1981 90 57.1981C76.8556 57.1981 66.2 67.8537 66.2 80.9981C66.2 94.1424 76.8556 104.798 90 104.798Z" fill="white"/>
<path d="M161.9 20.998H78.1C41.7 20.998 20 42.698 20 79.098V162.898C20 173.798 21.9 183.298 25.6 191.298C34.2 210.298 52.6 220.998 78.1 220.998H161.9C198.3 220.998 220 199.298 220 162.898V139.998V79.098C220 42.698 198.3 20.998 161.9 20.998ZM203.7 125.998C195.9 119.298 183.3 119.298 175.5 125.998L133.9 161.698C126.1 168.398 113.5 168.398 105.7 161.698L102.3 158.898C95.2 152.698 83.9 152.098 75.9 157.498L38.5 182.598C36.3 176.998 35 170.498 35 162.898V79.098C35 50.898 49.9 35.998 78.1 35.998H161.9C190.1 35.998 205 50.898 205 79.098V127.098L203.7 125.998Z" fill="white"/>
</svg>
