<svg width="61" height="61" viewBox="0 0 61 61" fill="none" xmlns="http://www.w3.org/2000/svg">
<path d="M6.48564 48.4361L6.43564 48.4861C5.76064 47.0111 5.33564 45.3361 5.16064 43.4861C5.33564 45.3111 5.81064 46.9611 6.48564 48.4361Z" fill="#85A8F8"/>
<path d="M22.5357 26.8611C25.8218 26.8611 28.4857 24.1972 28.4857 20.9111C28.4857 17.625 25.8218 14.9611 22.5357 14.9611C19.2496 14.9611 16.5857 17.625 16.5857 20.9111C16.5857 24.1972 19.2496 26.8611 22.5357 26.8611Z" fill="white"/>
<path d="M40.5106 5.91113H19.5606C10.4606 5.91113 5.03564 11.3361 5.03564 20.4361V41.3861C5.03564 44.1111 5.51064 46.4861 6.43564 48.4861C8.58564 53.2361 13.1856 55.9111 19.5606 55.9111H40.5106C49.6106 55.9111 55.0356 50.4861 55.0356 41.3861V35.6611V20.4361C55.0356 11.3361 49.6106 5.91113 40.5106 5.91113ZM50.9606 32.1611C49.0106 30.4861 45.8606 30.4861 43.9106 32.1611L33.5106 41.0861C31.5606 42.7611 28.4106 42.7611 26.4606 41.0861L25.6106 40.3861C23.8356 38.8361 21.0106 38.6861 19.0106 40.0361L9.66064 46.3111C9.11064 44.9111 8.78564 43.2861 8.78564 41.3861V20.4361C8.78564 13.3861 12.5106 9.66113 19.5606 9.66113H40.5106C47.5606 9.66113 51.2856 13.3861 51.2856 20.4361V32.4361L50.9606 32.1611Z" fill="white"/>
</svg>
