<svg width="60" height="60" viewBox="0 0 60 60" fill="none" xmlns="http://www.w3.org/2000/svg">
<path d="M6.44951 47.525L6.39951 47.575C5.72451 46.1 5.29951 44.425 5.12451 42.575C5.29951 44.4 5.77451 46.05 6.44951 47.525Z" fill="#85A8F8"/>
<path d="M22.4995 25.95C25.7856 25.95 28.4495 23.2861 28.4495 20C28.4495 16.7139 25.7856 14.05 22.4995 14.05C19.2134 14.05 16.5495 16.7139 16.5495 20C16.5495 23.2861 19.2134 25.95 22.4995 25.95Z" fill="white"/>
<path d="M40.4745 5H19.5245C10.4245 5 4.99951 10.425 4.99951 19.525V40.475C4.99951 43.2 5.47451 45.575 6.39951 47.575C8.54951 52.325 13.1495 55 19.5245 55H40.4745C49.5745 55 54.9995 49.575 54.9995 40.475V34.75V19.525C54.9995 10.425 49.5745 5 40.4745 5ZM50.9245 31.25C48.9745 29.575 45.8245 29.575 43.8745 31.25L33.4745 40.175C31.5245 41.85 28.3745 41.85 26.4245 40.175L25.5745 39.475C23.7995 37.925 20.9745 37.775 18.9745 39.125L9.62451 45.4C9.07451 44 8.74951 42.375 8.74951 40.475V19.525C8.74951 12.475 12.4745 8.75 19.5245 8.75H40.4745C47.5245 8.75 51.2495 12.475 51.2495 19.525V31.525L50.9245 31.25Z" fill="white"/>
</svg>
