<svg width="61" height="60" viewBox="0 0 61 60" fill="none" xmlns="http://www.w3.org/2000/svg">
<path d="M7.00371 47.525L6.95371 47.575C6.27871 46.1 5.85371 44.425 5.67871 42.575C5.85371 44.4 6.32871 46.05 7.00371 47.525Z" fill="#85A8F8"/>
<path d="M23.0538 25.95C26.3399 25.95 29.0038 23.2861 29.0038 20C29.0038 16.7139 26.3399 14.05 23.0538 14.05C19.7677 14.05 17.1038 16.7139 17.1038 20C17.1038 23.2861 19.7677 25.95 23.0538 25.95Z" fill="white"/>
<path d="M41.0287 5H20.0787C10.9787 5 5.55371 10.425 5.55371 19.525V40.475C5.55371 43.2 6.02871 45.575 6.95371 47.575C9.10371 52.325 13.7037 55 20.0787 55H41.0287C50.1287 55 55.5537 49.575 55.5537 40.475V34.75V19.525C55.5537 10.425 50.1287 5 41.0287 5ZM51.4787 31.25C49.5287 29.575 46.3787 29.575 44.4287 31.25L34.0287 40.175C32.0787 41.85 28.9287 41.85 26.9787 40.175L26.1287 39.475C24.3537 37.925 21.5287 37.775 19.5287 39.125L10.1787 45.4C9.62871 44 9.30371 42.375 9.30371 40.475V19.525C9.30371 12.475 13.0287 8.75 20.0787 8.75H41.0287C48.0787 8.75 51.8037 12.475 51.8037 19.525V31.525L51.4787 31.25Z" fill="white"/>
</svg>
