<svg width="60" height="61" viewBox="0 0 60 61" fill="none" xmlns="http://www.w3.org/2000/svg">
<path d="M6.44951 48.4361L6.39951 48.4861C5.72451 47.0111 5.29951 45.3361 5.12451 43.4861C5.29951 45.3111 5.77451 46.9611 6.44951 48.4361Z" fill="#85A8F8"/>
<path d="M22.4995 26.8611C25.7856 26.8611 28.4495 24.1972 28.4495 20.9111C28.4495 17.625 25.7856 14.9611 22.4995 14.9611C19.2134 14.9611 16.5495 17.625 16.5495 20.9111C16.5495 24.1972 19.2134 26.8611 22.4995 26.8611Z" fill="white"/>
<path d="M40.4745 5.91113H19.5245C10.4245 5.91113 4.99951 11.3361 4.99951 20.4361V41.3861C4.99951 44.1111 5.47451 46.4861 6.39951 48.4861C8.54951 53.2361 13.1495 55.9111 19.5245 55.9111H40.4745C49.5745 55.9111 54.9995 50.4861 54.9995 41.3861V35.6611V20.4361C54.9995 11.3361 49.5745 5.91113 40.4745 5.91113ZM50.9245 32.1611C48.9745 30.4861 45.8245 30.4861 43.8745 32.1611L33.4745 41.0861C31.5245 42.7611 28.3745 42.7611 26.4245 41.0861L25.5745 40.3861C23.7995 38.8361 20.9745 38.6861 18.9745 40.0361L9.62451 46.3111C9.07451 44.9111 8.74951 43.2861 8.74951 41.3861V20.4361C8.74951 13.3861 12.4745 9.66113 19.5245 9.66113H40.4745C47.5245 9.66113 51.2495 13.3861 51.2495 20.4361V32.4361L50.9245 32.1611Z" fill="white"/>
</svg>
