<svg width="349" height="349" viewBox="0 0 349 349" fill="none" xmlns="http://www.w3.org/2000/svg">
<path d="M37.9454 276.497L37.6554 276.787C33.7404 268.232 31.2754 258.517 30.2604 247.787C31.2754 258.372 34.0304 267.942 37.9454 276.497Z" fill="white"/>
<path d="M131.035 151.362C150.095 151.362 165.545 135.911 165.545 116.852C165.545 97.7922 150.095 82.3416 131.035 82.3416C111.976 82.3416 96.5254 97.7922 96.5254 116.852C96.5254 135.911 111.976 151.362 131.035 151.362Z" fill="white"/>
<path d="M235.29 29.8516H113.78C61.0004 29.8516 29.5354 61.3166 29.5354 114.097V235.607C29.5354 251.412 32.2904 265.187 37.6554 276.787C50.1254 304.337 76.8054 319.852 113.78 319.852H235.29C288.07 319.852 319.535 288.387 319.535 235.607V202.402V114.097C319.535 61.3166 288.07 29.8516 235.29 29.8516ZM295.9 182.102C284.59 172.387 266.32 172.387 255.01 182.102L194.69 233.867C183.38 243.582 165.11 243.582 153.8 233.867L148.87 229.807C138.575 220.817 122.19 219.947 110.59 227.777L56.3604 264.172C53.1704 256.052 51.2854 246.627 51.2854 235.607V114.097C51.2854 73.2066 72.8904 51.6016 113.78 51.6016H235.29C276.18 51.6016 297.785 73.2066 297.785 114.097V183.697L295.9 182.102Z" fill="white"/>
</svg>
