<svg width="61" height="60" viewBox="0 0 61 60" fill="none" xmlns="http://www.w3.org/2000/svg">
<path d="M6.96758 47.525L6.91758 47.575C6.24258 46.1 5.81758 44.425 5.64258 42.575C5.81758 44.4 6.29258 46.05 6.96758 47.525Z" fill="#85A8F8"/>
<path d="M23.0176 25.95C26.3037 25.95 28.9676 23.2861 28.9676 20C28.9676 16.7139 26.3037 14.05 23.0176 14.05C19.7315 14.05 17.0676 16.7139 17.0676 20C17.0676 23.2861 19.7315 25.95 23.0176 25.95Z" fill="white"/>
<path d="M40.9926 5H20.0426C10.9426 5 5.51758 10.425 5.51758 19.525V40.475C5.51758 43.2 5.99258 45.575 6.91758 47.575C9.06758 52.325 13.6676 55 20.0426 55H40.9926C50.0926 55 55.5176 49.575 55.5176 40.475V34.75V19.525C55.5176 10.425 50.0926 5 40.9926 5ZM51.4426 31.25C49.4926 29.575 46.3426 29.575 44.3926 31.25L33.9926 40.175C32.0426 41.85 28.8926 41.85 26.9426 40.175L26.0926 39.475C24.3176 37.925 21.4926 37.775 19.4926 39.125L10.1426 45.4C9.59258 44 9.26758 42.375 9.26758 40.475V19.525C9.26758 12.475 12.9926 8.75 20.0426 8.75H40.9926C48.0426 8.75 51.7676 12.475 51.7676 19.525V31.525L51.4426 31.25Z" fill="white"/>
</svg>
